<svg width="30" height="32" viewBox="0 0 30 32" fill="none" xmlns="http://www.w3.org/2000/svg">
<path d="M16.0083 0.0920044C16.0083 0.184006 13.6807 9.46698 10.985 20.1116C10.2582 23.0004 9.66019 25.4109 9.66019 25.4753C9.66019 25.5489 12.1718 25.5765 19.4584 25.5765C26.2757 25.5765 29.2566 25.6041 29.2566 25.6777C29.2566 25.7237 28.9714 26.9197 28.6217 28.3181C28.2721 29.7166 27.9317 31.115 27.8581 31.4186L27.7293 31.9706L13.8647 31.9982C6.23772 32.0074 0 31.9798 0 31.943C0 31.897 0.533611 29.735 1.18682 27.1313C1.84004 24.5277 3.60647 17.5171 5.1061 11.5462C6.60573 5.57531 7.87535 0.533611 7.92136 0.340407L8.01336 -1.62694e-07H12.0062C14.7111 -1.62694e-07 16.0083 0.0276032 16.0083 0.0920044Z" fill="#E7BC0F"/>
</svg>
